<svg xmlns="http://www.w3.org/2000/svg" xmlns:xlink="http://www.w3.org/1999/xlink" width="500" zoomAndPan="magnify" viewBox="0 0 375 374.999991" height="500" preserveAspectRatio="xMidYMid meet" version="1.0"><defs><clipPath id="fe0b597443"><path d="M 10.074219 333 L 364.824219 333 L 364.824219 371.921875 L 10.074219 371.921875 Z M 10.074219 333 " clip-rule="nonzero"/></clipPath><clipPath id="1e579f34b5"><path d="M 115 2.921875 L 253 2.921875 L 253 121 L 115 121 Z M 115 2.921875 " clip-rule="nonzero"/></clipPath></defs><rect x="-37.5" width="450" fill="#ffffff" y="-37.499999" height="449.999989" fill-opacity="1"/><rect x="-37.5" width="450" fill="#ffffff" y="-37.499999" height="449.999989" fill-opacity="1"/><rect x="-37.5" width="450" fill="#d9d9d9" y="-37.499999" height="449.999989" fill-opacity="1"/><path fill="#34426e" d="M 59.414062 297.964844 L 78.519531 297.964844 L 78.519531 342.339844 L 59.414062 342.339844 Z M 59.414062 297.964844 " fill-opacity="1" fill-rule="evenodd"/><path fill="#34426e" d="M 24.695312 245.8125 L 43.796875 245.8125 L 43.796875 340.363281 L 24.695312 340.363281 Z M 24.695312 245.8125 " fill-opacity="1" fill-rule="evenodd"/><path fill="#d3e8fb" d="M 43.179688 268.59375 L 61.226562 268.59375 L 61.226562 340.363281 L 43.179688 340.363281 Z M 43.179688 268.59375 " fill-opacity="1" fill-rule="evenodd"/><path fill="#fdb3a1" d="M 86.289062 114.984375 C 84.925781 115.25 77.851562 136.921875 73.058594 136.246094 C 63.90625 134.953125 55.566406 109.96875 58.480469 104.480469 C 59.238281 103.050781 59.789062 101.410156 61.039062 100.53125 C 74.273438 91.25 70.507812 75.105469 64.058594 63.136719 C 64.070312 63.128906 64.070312 63.128906 64.070312 63.128906 C 64.070312 63.128906 71.386719 57.066406 77.511719 69.003906 C 79.453125 72.785156 79.726562 78.210938 82.523438 78.773438 C 86.722656 79.621094 93.234375 77.457031 98.046875 76.253906 C 98.046875 76.253906 104.289062 77.109375 100.757812 81.503906 C 100.757812 81.503906 107.394531 83.160156 103.546875 90.476562 C 102.773438 90.675781 111.058594 93.316406 106.355469 98.160156 C 106.355469 98.160156 110.804688 100.605469 105.621094 105.761719 C 105.621094 105.761719 99.175781 112.496094 86.289062 114.984375 Z M 86.289062 114.984375 " fill-opacity="1" fill-rule="evenodd"/><path fill="#34426e" d="M 66.25 61.867188 C 66.25 61.867188 68.265625 63.785156 69.054688 65.953125 C 69.601562 67.457031 69.566406 69.074219 67.96875 70.296875 C 67.863281 70.375 67.71875 70.355469 67.644531 70.253906 C 67.5625 70.152344 67.582031 70.007812 67.683594 69.929688 C 69.085938 68.855469 69.097656 67.429688 68.617188 66.109375 C 67.863281 64.039062 65.929688 62.203125 65.929688 62.203125 C 65.835938 62.113281 65.832031 61.96875 65.921875 61.875 C 66.007812 61.78125 66.15625 61.777344 66.25 61.867188 Z M 66.25 61.867188 " fill-opacity="1" fill-rule="evenodd"/><path fill="#34426e" d="M 82.164062 88.410156 C 82.164062 88.410156 83.851562 87.949219 86.25 87.207031 C 87.082031 86.949219 87.996094 86.660156 88.953125 86.339844 C 89.683594 86.097656 90.433594 85.84375 91.195312 85.570312 C 91.933594 85.304688 92.675781 85.027344 93.414062 84.738281 C 96.21875 83.644531 98.894531 82.441406 100.570312 81.351562 C 100.683594 81.277344 100.71875 81.125 100.644531 81.011719 C 100.570312 80.898438 100.417969 80.867188 100.304688 80.941406 C 99.015625 81.769531 97.125 82.660156 95.046875 83.527344 C 94.050781 83.941406 93.015625 84.347656 91.980469 84.746094 C 91.289062 85.011719 90.597656 85.273438 89.921875 85.527344 C 88.527344 86.050781 87.195312 86.539062 86.039062 86.953125 C 83.738281 87.773438 82.132812 88.308594 82.132812 88.308594 C 82.105469 88.316406 82.089844 88.347656 82.097656 88.375 C 82.105469 88.402344 82.136719 88.417969 82.164062 88.410156 Z M 82.164062 88.410156 " fill-opacity="1" fill-rule="evenodd"/><path fill="#34426e" d="M 86.84375 96.339844 C 86.84375 96.339844 88.398438 96.019531 90.621094 95.441406 C 91.386719 95.242188 92.230469 95.007812 93.113281 94.746094 C 93.785156 94.550781 94.476562 94.335938 95.175781 94.105469 C 95.851562 93.878906 96.535156 93.636719 97.210938 93.382812 C 99.683594 92.449219 102.066406 91.34375 103.6875 90.175781 C 103.796875 90.097656 103.820312 89.945312 103.742188 89.835938 C 103.664062 89.726562 103.511719 89.699219 103.402344 89.777344 C 101.804688 90.921875 99.457031 91.980469 97.03125 92.902344 C 96.359375 93.160156 95.683594 93.402344 95.015625 93.640625 C 94.324219 93.886719 93.644531 94.121094 92.988281 94.34375 C 92.113281 94.636719 91.285156 94.90625 90.535156 95.140625 C 88.351562 95.828125 86.820312 96.238281 86.820312 96.238281 C 86.792969 96.246094 86.777344 96.273438 86.78125 96.300781 C 86.789062 96.328125 86.816406 96.347656 86.84375 96.339844 Z M 86.84375 96.339844 " fill-opacity="1" fill-rule="evenodd"/><path fill="#34426e" d="M 91.421875 104.835938 C 91.421875 104.835938 92.699219 104.421875 94.679688 103.65625 C 95.328125 103.40625 96.050781 103.121094 96.824219 102.796875 C 97.542969 102.496094 98.304688 102.164062 99.09375 101.800781 C 100.050781 101.359375 101.046875 100.867188 102.0625 100.34375 C 103.496094 99.597656 104.960938 98.777344 106.382812 97.902344 C 106.496094 97.832031 106.535156 97.679688 106.460938 97.566406 C 106.390625 97.449219 106.242188 97.414062 106.125 97.484375 C 104.222656 98.644531 102.234375 99.699219 100.359375 100.628906 C 99.753906 100.929688 99.160156 101.21875 98.585938 101.496094 C 97.96875 101.792969 97.371094 102.078125 96.804688 102.34375 C 96.027344 102.710938 95.300781 103.042969 94.652344 103.335938 C 92.667969 104.226562 91.386719 104.738281 91.386719 104.738281 C 91.359375 104.75 91.34375 104.777344 91.355469 104.804688 C 91.363281 104.832031 91.394531 104.847656 91.421875 104.835938 Z M 91.421875 104.835938 " fill-opacity="1" fill-rule="evenodd"/><path fill="#d3e8fb" d="M 119.417969 285.667969 C 121.464844 270.691406 114.832031 214.8125 108.140625 215.308594 C 97.109375 216.132812 22.054688 209.507812 15.65625 182.984375 C 10.074219 159.867188 64.019531 88.996094 64.019531 88.996094 L 89.007812 128.457031 C 89.835938 129.59375 57.019531 164.890625 57.019531 164.890625 C 57.019531 164.890625 107.699219 151.1875 112.945312 152.699219 C 126.734375 156.664062 128.144531 172.804688 132.953125 176.074219 C 144.773438 172.777344 155.34375 171.207031 155.34375 171.207031 C 155.34375 171.207031 169.25 247.984375 169.988281 262.6875 C 170.859375 280.085938 118.042969 297.140625 119.417969 285.667969 Z M 119.417969 285.667969 " fill-opacity="1" fill-rule="evenodd"/><path fill="#5587ba" d="M 333.589844 293.007812 C 333.589844 293.007812 325.164062 274.484375 331.882812 251.515625 C 337.746094 231.46875 335.546875 226.921875 332.15625 218.148438 C 332.109375 218.035156 331.984375 217.976562 331.871094 218.019531 C 331.753906 218.066406 331.699219 218.195312 331.742188 218.308594 C 335.105469 227.007812 337.273438 231.515625 331.457031 251.390625 C 324.691406 274.53125 333.1875 293.191406 333.1875 293.191406 C 333.238281 293.304688 333.367188 293.351562 333.480469 293.304688 C 333.589844 293.253906 333.640625 293.121094 333.589844 293.007812 Z M 333.589844 293.007812 " fill-opacity="1" fill-rule="evenodd"/><path fill="#5587ba" d="M 329.09375 272.707031 C 329.09375 272.707031 332.226562 256.386719 339.78125 245.441406 C 347.332031 234.492188 347.269531 230.53125 348.207031 223.195312 C 348.207031 223.195312 354.042969 239.539062 346.855469 253.398438 C 339.671875 267.257812 333.230469 271.703125 329.09375 272.707031 Z M 329.09375 272.707031 " fill-opacity="1" fill-rule="evenodd"/><path fill="#5587ba" d="M 328.875 272.664062 C 328.859375 272.738281 328.886719 272.816406 328.941406 272.867188 C 328.996094 272.917969 329.070312 272.941406 329.144531 272.921875 C 333.3125 271.910156 339.820312 267.457031 347.054688 253.503906 C 354.28125 239.5625 348.417969 223.121094 348.417969 223.121094 C 348.382812 223.027344 348.285156 222.964844 348.183594 222.976562 C 348.082031 222.988281 348 223.066406 347.988281 223.167969 C 347.054688 230.472656 347.117188 234.414062 339.597656 245.316406 C 332.019531 256.296875 328.875 272.664062 328.875 272.664062 Z M 329.382812 272.402344 C 329.878906 269.996094 333.078125 255.542969 339.960938 245.566406 C 347.199219 235.078125 347.476562 230.976562 348.300781 224.222656 C 349.398438 227.890625 352.777344 241.5 346.660156 253.296875 C 339.71875 266.6875 333.496094 271.246094 329.382812 272.402344 Z M 329.382812 272.402344 " fill-opacity="1" fill-rule="evenodd"/><path fill="#5587ba" d="M 330.65625 255.644531 C 330.65625 255.644531 329.496094 242.722656 323.335938 234.847656 C 317.171875 226.972656 317.089844 227.324219 307.992188 226.535156 C 307.992188 226.535156 323.160156 215.132812 331.046875 231.910156 C 331.046875 231.910156 334.921875 241.46875 330.65625 255.644531 Z M 330.65625 255.644531 " fill-opacity="1" fill-rule="evenodd"/><path fill="#5587ba" d="M 330.433594 255.664062 C 330.445312 255.769531 330.527344 255.855469 330.632812 255.863281 C 330.738281 255.875 330.835938 255.8125 330.867188 255.707031 C 335.160156 241.445312 331.253906 231.828125 331.253906 231.828125 C 331.25 231.824219 331.25 231.820312 331.25 231.820312 C 328.847656 226.710938 325.773438 224.1875 322.660156 223.140625 C 315.394531 220.707031 307.859375 226.359375 307.859375 226.359375 C 307.785156 226.414062 307.753906 226.507812 307.777344 226.597656 C 307.804688 226.6875 307.882812 226.75 307.972656 226.757812 C 312.476562 227.148438 314.75 227.246094 316.660156 228.230469 C 318.570312 229.214844 320.109375 231.085938 323.160156 234.984375 C 329.289062 242.8125 330.433594 255.664062 330.433594 255.664062 Z M 330.746094 254.527344 C 330.3125 251.230469 328.621094 241.242188 323.507812 234.710938 C 320.398438 230.734375 318.8125 228.84375 316.863281 227.835938 C 315.007812 226.878906 312.8125 226.726562 308.621094 226.367188 C 310.378906 225.195312 316.542969 221.558594 322.515625 223.5625 C 325.542969 224.578125 328.511719 227.042969 330.84375 232 C 330.941406 232.246094 334.441406 241.207031 330.746094 254.527344 Z M 330.746094 254.527344 " fill-opacity="1" fill-rule="evenodd"/><path fill="#5587ba" d="M 332.269531 218.863281 C 332.269531 218.863281 325.664062 211.648438 318.367188 209.75 C 311.070312 207.851562 311.179688 208.101562 305.367188 211.789062 C 305.367188 211.789062 309.238281 198.019531 321.644531 204.460938 C 321.644531 204.460938 328.339844 208.414062 332.269531 218.863281 Z M 332.269531 218.863281 " fill-opacity="1" fill-rule="evenodd"/><path fill="#5587ba" d="M 332.109375 219.011719 C 332.179688 219.089844 332.296875 219.105469 332.386719 219.050781 C 332.476562 218.996094 332.515625 218.882812 332.476562 218.785156 C 328.515625 208.25 321.753906 204.269531 321.753906 204.269531 C 321.753906 204.269531 321.75 204.265625 321.746094 204.265625 C 317.953125 202.296875 314.941406 202.191406 312.585938 202.992188 C 307.09375 204.867188 305.15625 211.730469 305.15625 211.730469 C 305.128906 211.820312 305.164062 211.914062 305.234375 211.96875 C 305.308594 212.023438 305.410156 212.027344 305.488281 211.976562 C 308.355469 210.15625 309.757812 209.175781 311.347656 208.894531 C 312.9375 208.609375 314.707031 209.027344 318.308594 209.964844 C 325.550781 211.847656 332.109375 219.011719 332.109375 219.011719 Z M 331.664062 217.921875 C 329.707031 215.988281 324.28125 211.058594 318.421875 209.535156 C 314.722656 208.574219 312.902344 208.167969 311.269531 208.457031 C 309.738281 208.730469 308.367188 209.617188 305.769531 211.273438 C 306.359375 209.617188 308.386719 204.894531 312.726562 203.414062 C 314.992188 202.640625 317.886719 202.761719 321.535156 204.65625 C 321.726562 204.773438 327.792969 208.472656 331.664062 217.921875 Z M 331.664062 217.921875 " fill-opacity="1" fill-rule="evenodd"/><path fill="#5587ba" d="M 335.179688 229.628906 C 335.179688 229.628906 334.019531 216.292969 340.226562 208.582031 C 340.226562 208.582031 344.925781 203.46875 346.929688 198.222656 C 346.929688 198.222656 343.570312 213.523438 343.21875 219.183594 C 342.867188 224.84375 337.027344 228.550781 335.179688 229.628906 Z M 335.179688 229.628906 " fill-opacity="1" fill-rule="evenodd"/><path fill="#5587ba" d="M 334.960938 229.648438 C 334.96875 229.722656 335.011719 229.789062 335.078125 229.824219 C 335.144531 229.859375 335.226562 229.859375 335.292969 229.820312 C 336.414062 229.167969 338.984375 227.554688 340.941406 225.132812 C 342.257812 223.503906 343.292969 221.511719 343.4375 219.199219 C 343.789062 213.546875 347.144531 198.269531 347.144531 198.269531 C 347.171875 198.15625 347.101562 198.042969 346.992188 198.011719 C 346.882812 197.976562 346.761719 198.035156 346.722656 198.144531 C 344.734375 203.355469 340.066406 208.433594 340.066406 208.433594 C 340.0625 208.4375 340.058594 208.441406 340.054688 208.445312 C 333.800781 216.210938 334.960938 229.648438 334.960938 229.648438 Z M 335.378906 229.253906 C 335.246094 227.101562 334.835938 215.636719 340.394531 208.726562 C 340.546875 208.5625 344.054688 204.699219 346.261719 200.277344 C 345.332031 204.675781 343.269531 214.796875 342.996094 219.171875 C 342.859375 221.386719 341.859375 223.292969 340.597656 224.855469 C 338.84375 227.023438 336.585938 228.527344 335.378906 229.253906 Z M 335.378906 229.253906 " fill-opacity="1" fill-rule="evenodd"/><path fill="#5587ba" d="M 329.273438 272.851562 C 330.6875 270.929688 331.875 268.117188 332.335938 265.820312 C 332.441406 265.289062 332.671875 264.824219 332.914062 264.375 C 333.167969 263.890625 333.4375 263.414062 333.601562 262.894531 C 334.46875 260.105469 335.1875 257.25 336.316406 254.5625 C 336.878906 253.222656 337.742188 252.226562 338.519531 251.011719 C 340.71875 247.578125 343.398438 244.492188 345.492188 240.980469 C 346.679688 238.988281 347.871094 236.375 348.050781 234.042969 C 348.074219 233.722656 348.015625 233.417969 347.964844 233.113281 C 347.917969 232.851562 347.875 232.589844 347.921875 232.316406 C 348.0625 231.417969 348.359375 230.449219 348.503906 229.542969 C 348.75 228 348.617188 226.574219 348.730469 225.046875 C 348.761719 224.6875 348.667969 224.265625 348.503906 224.046875 C 348.402344 223.914062 348.273438 223.839844 348.136719 223.832031 C 347.972656 223.824219 347.75 223.914062 347.527344 224.246094 C 347.460938 224.34375 347.484375 224.484375 347.585938 224.550781 C 347.6875 224.621094 347.828125 224.59375 347.894531 224.492188 C 347.945312 224.417969 347.992188 224.359375 348.039062 224.320312 C 348.066406 224.296875 348.089844 224.273438 348.113281 224.273438 C 348.121094 224.277344 348.128906 224.289062 348.132812 224.292969 C 348.15625 224.316406 348.171875 224.347656 348.1875 224.378906 C 348.273438 224.546875 348.308594 224.796875 348.289062 225.015625 C 348.175781 226.527344 348.308594 227.941406 348.066406 229.472656 C 347.921875 230.378906 347.625 231.347656 347.480469 232.246094 C 347.429688 232.570312 347.476562 232.878906 347.527344 233.1875 C 347.574219 233.457031 347.628906 233.726562 347.605469 234.007812 C 347.433594 236.277344 346.265625 238.816406 345.109375 240.753906 C 343.019531 244.261719 340.34375 247.34375 338.148438 250.773438 C 337.355469 252.007812 336.480469 253.027344 335.910156 254.390625 C 334.773438 257.09375 334.050781 259.960938 333.179688 262.761719 C 333.023438 263.257812 332.765625 263.703125 332.519531 264.164062 C 332.261719 264.65625 332.011719 265.15625 331.898438 265.734375 C 331.453125 267.972656 330.296875 270.714844 328.917969 272.589844 C 328.84375 272.6875 328.867188 272.824219 328.964844 272.898438 C 329.0625 272.96875 329.203125 272.949219 329.273438 272.851562 Z M 329.273438 272.851562 " fill-opacity="1" fill-rule="evenodd"/><path fill="#5587ba" d="M 348.011719 224.585938 C 347.972656 224.644531 347.929688 224.71875 347.917969 224.765625 C 347.894531 224.875 347.914062 224.980469 348.011719 225.074219 C 348.023438 225.082031 348.03125 225.09375 348.042969 225.101562 C 348.03125 225.164062 348.03125 225.222656 348.042969 225.273438 C 348.0625 225.347656 348.09375 225.429688 348.132812 225.507812 C 348.039062 225.921875 348.015625 226.5 348.125 226.851562 L 348.128906 226.863281 C 348.085938 227.058594 348.039062 227.246094 348.011719 227.421875 C 347.695312 229.414062 347.222656 231.4375 346.785156 233.390625 C 346.535156 234.515625 346.632812 235.539062 346.09375 236.605469 C 345.679688 237.425781 345.199219 238.164062 344.832031 238.925781 C 344.527344 239.554688 344.332031 240.542969 343.945312 241.070312 C 343.480469 241.699219 342.917969 242.128906 342.425781 242.796875 C 342.050781 243.304688 341.40625 244.398438 340.898438 244.914062 C 340.789062 245.023438 340.632812 245.117188 340.484375 245.214844 C 340.292969 245.335938 340.113281 245.46875 340 245.625 C 338.742188 247.332031 339.058594 247.488281 338.414062 248.644531 C 337.929688 249.511719 337.257812 250.246094 336.765625 251.09375 C 335.628906 253.046875 334.410156 256.21875 333.65625 258.445312 C 333.527344 258.820312 333.5 259.304688 333.449219 259.785156 C 333.410156 260.207031 333.355469 260.625 333.171875 260.917969 C 332.492188 262.003906 331.835938 262.828125 331.457031 264.132812 C 331.359375 264.464844 331.386719 264.953125 331.402344 265.441406 C 331.414062 265.863281 331.417969 266.289062 331.265625 266.582031 C 330.839844 267.394531 329.992188 268.445312 329.753906 269.375 C 329.65625 269.75 329.667969 270.160156 329.664062 270.570312 C 329.660156 270.933594 329.648438 271.296875 329.503906 271.632812 C 329.445312 271.773438 329.308594 271.882812 329.199219 272 C 329.089844 272.121094 329 272.246094 328.960938 272.386719 C 328.894531 272.601562 328.949219 272.726562 328.988281 272.773438 C 329.054688 272.851562 329.203125 272.914062 329.394531 272.789062 C 329.40625 272.78125 329.414062 272.773438 329.425781 272.765625 C 329.578125 272.820312 329.722656 272.777344 329.859375 272.660156 C 329.972656 272.566406 330.078125 272.398438 330.175781 272.300781 C 330.589844 271.875 330.859375 271.554688 331.117188 271.226562 C 331.683594 270.804688 332.316406 270.371094 332.84375 270.042969 C 335.492188 268.394531 337.136719 266.265625 338.445312 263.515625 C 338.589844 263.210938 338.8125 262.953125 339.039062 262.699219 C 339.292969 262.414062 339.546875 262.128906 339.726562 261.800781 C 340.566406 260.242188 341.21875 258.660156 342.046875 257.109375 C 342.464844 256.332031 343.277344 255.429688 343.878906 254.753906 C 344.441406 254.121094 345.789062 251.304688 346.203125 250.390625 C 346.777344 249.125 346.855469 247.84375 347.269531 246.53125 C 347.453125 245.945312 347.839844 245.378906 348.015625 244.777344 C 348.585938 242.835938 348.800781 240.695312 349.042969 238.679688 C 349.15625 237.753906 349.101562 236.742188 349.019531 235.722656 C 349.046875 235.585938 349.074219 235.449219 349.101562 235.3125 C 349.148438 235.070312 349.148438 234.757812 349.160156 234.453125 C 349.171875 234.191406 349.1875 233.9375 349.269531 233.761719 C 349.523438 233.226562 349.429688 232.523438 349.300781 231.816406 C 349.1875 231.195312 349.046875 230.570312 349.210938 230.078125 C 349.269531 229.910156 349.257812 229.734375 349.210938 229.554688 C 349.160156 229.363281 349.058594 229.167969 349.027344 228.972656 C 349.007812 228.828125 349.03125 228.644531 349.058594 228.46875 C 349.09375 228.253906 349.128906 228.042969 349.128906 227.882812 C 349.128906 227.71875 349.046875 227.527344 348.921875 227.332031 C 348.902344 227.300781 348.882812 227.269531 348.863281 227.238281 C 348.84375 226.882812 348.839844 226.535156 348.863281 226.199219 C 348.875 226.046875 348.824219 225.882812 348.738281 225.710938 C 348.730469 225.566406 348.707031 225.425781 348.664062 225.292969 C 348.675781 225.238281 348.683594 225.171875 348.683594 225.105469 C 348.683594 224.921875 348.636719 224.722656 348.636719 224.722656 C 348.621094 224.652344 348.570312 224.597656 348.503906 224.570312 C 348.511719 224.519531 348.503906 224.46875 348.480469 224.421875 C 348.453125 224.359375 348.390625 224.285156 348.253906 224.242188 C 348.136719 224.207031 348.011719 224.277344 347.976562 224.394531 C 347.957031 224.460938 347.972656 224.53125 348.011719 224.585938 Z M 348.101562 229.417969 C 347.832031 230.785156 347.519531 232.15625 347.21875 233.488281 C 346.957031 234.648438 347.046875 235.703125 346.488281 236.804688 C 346.078125 237.621094 345.597656 238.359375 345.230469 239.117188 C 344.914062 239.769531 344.703125 240.789062 344.300781 241.332031 C 343.835938 241.964844 343.273438 242.390625 342.78125 243.058594 C 342.398438 243.582031 341.734375 244.695312 341.214844 245.226562 C 341.085938 245.355469 340.90625 245.46875 340.726562 245.585938 C 340.582031 245.679688 340.441406 245.769531 340.355469 245.886719 C 339.117188 247.566406 339.433594 247.722656 338.800781 248.859375 C 338.316406 249.726562 337.640625 250.464844 337.148438 251.316406 C 336.023438 253.246094 334.820312 256.386719 334.074219 258.585938 C 333.957031 258.933594 333.9375 259.386719 333.890625 259.828125 C 333.84375 260.324219 333.761719 260.808594 333.546875 261.152344 C 332.890625 262.203125 332.25 262.996094 331.882812 264.253906 C 331.792969 264.554688 331.832031 264.988281 331.84375 265.429688 C 331.859375 265.933594 331.839844 266.4375 331.65625 266.789062 C 331.246094 267.574219 330.414062 268.585938 330.183594 269.484375 C 330.09375 269.828125 330.109375 270.203125 330.105469 270.574219 C 330.105469 270.917969 330.085938 271.257812 329.992188 271.582031 C 330.09375 271.480469 330.1875 271.386719 330.253906 271.332031 C 330.28125 271.308594 330.308594 271.289062 330.339844 271.265625 C 330.414062 271.140625 330.484375 271.027344 330.546875 270.945312 C 331.398438 269.789062 331.9375 268.375 332.894531 267.191406 C 334.054688 265.75 334.652344 264.1875 335.1875 262.59375 C 335.734375 260.96875 336.214844 259.3125 337.136719 257.726562 C 338.230469 255.84375 339.410156 253.941406 340.429688 251.976562 C 340.921875 251.027344 341.136719 249.96875 341.675781 249.039062 C 342.21875 248.105469 342.96875 247.441406 343.535156 246.554688 C 344.246094 245.445312 344.640625 243.894531 345.097656 242.660156 C 345.667969 241.121094 346.601562 239.714844 346.984375 238.109375 C 347.671875 235.246094 347.984375 232.339844 348.101562 229.417969 Z M 348.667969 237.527344 C 348.492188 238.417969 348.320312 239.320312 348.140625 240.214844 C 347.808594 241.878906 347.300781 243.675781 346.753906 245.296875 C 346.289062 246.671875 345.078125 247.761719 344.3125 248.984375 C 343.800781 249.800781 343.5 250.570312 342.90625 251.359375 C 342.515625 251.875 342.320312 252.582031 342.148438 253.308594 C 341.960938 254.082031 341.804688 254.871094 341.503906 255.511719 C 340.195312 258.261719 338.328125 260.496094 336.632812 263.007812 C 336.003906 263.945312 335.546875 265.136719 335.136719 266.164062 C 334.957031 266.617188 334.601562 266.945312 334.234375 267.257812 C 333.921875 267.527344 333.597656 267.78125 333.429688 268.128906 C 333.109375 268.804688 332.519531 269.441406 332.011719 270.054688 C 332.21875 269.914062 332.421875 269.785156 332.609375 269.667969 C 335.183594 268.066406 336.777344 265.996094 338.042969 263.324219 C 338.207031 262.984375 338.453125 262.691406 338.707031 262.402344 C 338.9375 262.144531 339.171875 261.886719 339.335938 261.589844 C 340.179688 260.03125 340.828125 258.453125 341.65625 256.902344 C 342.085938 256.097656 342.925781 255.15625 343.546875 254.460938 C 344.09375 253.84375 345.398438 251.097656 345.800781 250.207031 C 346.367188 248.960938 346.441406 247.695312 346.847656 246.398438 C 347.03125 245.816406 347.417969 245.25 347.59375 244.652344 C 348.152344 242.734375 348.363281 240.617188 348.605469 238.628906 C 348.648438 238.273438 348.664062 237.902344 348.667969 237.527344 Z M 348.566406 228.839844 C 348.46875 231.992188 348.15625 235.125 347.417969 238.214844 C 347.03125 239.835938 346.089844 241.257812 345.515625 242.8125 C 345.042969 244.074219 344.636719 245.660156 343.90625 246.796875 C 343.34375 247.675781 342.597656 248.335938 342.058594 249.261719 C 341.523438 250.183594 341.3125 251.238281 340.824219 252.179688 C 339.800781 254.152344 338.617188 256.0625 337.519531 257.949219 C 336.613281 259.507812 336.144531 261.136719 335.605469 262.734375 C 335.054688 264.375 334.433594 265.984375 333.238281 267.46875 C 332.765625 268.058594 332.394531 268.699219 332.035156 269.34375 C 332.421875 268.890625 332.800781 268.425781 333.03125 267.9375 C 333.222656 267.535156 333.582031 267.230469 333.945312 266.921875 C 334.257812 266.65625 334.574219 266.382812 334.726562 266.003906 C 335.144531 264.945312 335.617188 263.722656 336.265625 262.761719 C 337.949219 260.269531 339.804688 258.050781 341.101562 255.320312 C 341.390625 254.707031 341.539062 253.949219 341.714844 253.207031 C 341.902344 252.417969 342.125 251.65625 342.554688 251.089844 C 343.140625 250.3125 343.433594 249.550781 343.9375 248.75 C 344.683594 247.554688 345.878906 246.496094 346.332031 245.15625 C 346.875 243.550781 347.378906 241.773438 347.707031 240.128906 C 348 238.640625 348.285156 237.15625 348.574219 235.683594 C 348.496094 234.746094 348.394531 233.804688 348.378906 232.9375 C 348.359375 231.75 348.730469 230.566406 348.621094 229.382812 C 348.605469 229.207031 348.585938 229.023438 348.566406 228.839844 Z M 348.875 231.957031 C 348.839844 232.28125 348.816406 232.605469 348.824219 232.929688 C 348.824219 233.15625 348.835938 233.386719 348.847656 233.621094 C 348.855469 233.605469 348.863281 233.585938 348.871094 233.570312 C 349.082031 233.125 348.984375 232.546875 348.875 231.957031 Z M 348.875 231.957031 " fill-opacity="1" fill-rule="evenodd"/><path fill="#5587ba" d="M 345.121094 202.34375 C 345.058594 202.328125 345.003906 202.328125 344.953125 202.335938 C 344.851562 202.355469 344.761719 202.410156 344.679688 202.507812 C 344.59375 202.617188 344.519531 202.796875 344.445312 202.980469 C 344.394531 203.117188 344.34375 203.257812 344.273438 203.34375 C 343.476562 204.347656 342.9375 205.597656 342.34375 206.707031 C 341.96875 207.402344 341.457031 207.992188 340.984375 208.613281 C 340.492188 209.265625 340.039062 209.941406 339.808594 210.78125 C 339.582031 211.597656 339.507812 212.449219 339.394531 213.292969 C 339.289062 214.101562 339.148438 214.90625 338.796875 215.652344 C 337.785156 217.777344 336.277344 219.449219 336.050781 221.871094 C 335.902344 223.449219 335.527344 225.140625 335.222656 226.699219 C 335.070312 227.476562 335.132812 228.101562 335.28125 228.875 C 335.28125 228.894531 335.285156 228.917969 335.285156 228.9375 C 335.28125 229.03125 335.253906 229.164062 335.238281 229.265625 C 335.203125 229.273438 335.164062 229.28125 335.113281 229.289062 C 334.992188 229.316406 334.917969 229.429688 334.941406 229.550781 C 334.953125 229.617188 334.992188 229.667969 335.046875 229.699219 C 335.035156 229.71875 335.019531 229.738281 335.007812 229.761719 C 334.941406 229.863281 334.96875 230 335.070312 230.066406 C 335.175781 230.132812 335.3125 230.105469 335.378906 230 C 335.460938 229.875 335.535156 229.746094 335.605469 229.613281 C 335.625 229.597656 335.644531 229.578125 335.664062 229.550781 C 335.679688 229.53125 335.695312 229.507812 335.707031 229.480469 C 335.75 229.421875 335.78125 229.351562 335.804688 229.265625 C 335.808594 229.238281 335.816406 229.207031 335.820312 229.167969 C 335.875 229.039062 335.929688 228.90625 335.976562 228.773438 C 336.074219 228.71875 336.167969 228.660156 336.234375 228.589844 C 336.363281 228.441406 336.457031 228.242188 336.546875 228.035156 C 336.621094 227.867188 336.691406 227.691406 336.789062 227.558594 C 336.898438 227.414062 337.117188 227.332031 337.332031 227.234375 C 337.617188 227.101562 337.910156 226.949219 338.089844 226.703125 C 339.597656 224.65625 341.195312 222.566406 341.886719 220.09375 C 342.285156 218.664062 342.671875 217.289062 343.175781 215.953125 C 343.300781 215.621094 343.394531 215.203125 343.507812 214.792969 C 343.609375 214.421875 343.726562 214.054688 343.917969 213.800781 C 343.980469 213.714844 344.03125 213.585938 344.070312 213.421875 C 344.113281 213.222656 344.136719 212.964844 344.15625 212.679688 C 344.199219 212.042969 344.195312 211.28125 344.351562 210.949219 C 344.394531 210.863281 344.410156 210.753906 344.40625 210.632812 C 344.40625 210.492188 344.375 210.332031 344.347656 210.167969 C 344.328125 210.054688 344.308594 209.9375 344.304688 209.832031 C 344.300781 209.769531 344.300781 209.707031 344.324219 209.664062 C 345.273438 208.027344 345.515625 206.25 345.523438 204.367188 C 345.523438 204.109375 345.457031 203.851562 345.390625 203.59375 C 345.632812 203.039062 345.789062 202.429688 346.039062 201.878906 C 346.207031 201.503906 346.382812 200.691406 346.382812 200.691406 C 346.40625 200.578125 346.34375 200.46875 346.234375 200.433594 C 346.128906 200.398438 346.011719 200.449219 345.964844 200.550781 C 345.964844 200.550781 345.664062 201.207031 345.492188 201.523438 C 345.347656 201.789062 345.226562 202.0625 345.121094 202.34375 Z M 344.84375 203.179688 C 344.777344 203.347656 344.707031 203.511719 344.621094 203.621094 C 343.839844 204.601562 343.316406 205.832031 342.734375 206.917969 C 342.347656 207.632812 341.824219 208.242188 341.339844 208.882812 C 340.875 209.488281 340.449219 210.117188 340.234375 210.898438 C 340.015625 211.695312 339.941406 212.527344 339.835938 213.351562 C 339.722656 214.207031 339.570312 215.054688 339.195312 215.84375 C 338.695312 216.894531 338.066406 217.835938 337.539062 218.816406 C 337.023438 219.761719 336.601562 220.746094 336.492188 221.910156 C 336.34375 223.503906 335.964844 225.210938 335.660156 226.785156 C 335.574219 227.214844 335.5625 227.59375 335.597656 227.980469 C 335.703125 227.769531 335.820312 227.558594 335.941406 227.355469 C 336.242188 226.074219 336.390625 224.695312 336.683594 223.550781 C 336.984375 222.375 337.613281 221.292969 338.25 220.207031 C 338.863281 219.15625 339.476562 218.109375 339.769531 216.960938 C 340.359375 214.660156 340.882812 212.441406 341.671875 210.199219 C 342.453125 207.984375 343.597656 205.90625 344.6875 203.988281 C 344.71875 203.746094 344.761719 203.507812 344.824219 203.277344 L 344.847656 203.195312 Z M 345.078125 204.410156 C 345.011719 205.066406 344.988281 205.742188 344.820312 206.375 C 344.480469 207.6875 343.773438 208.679688 343.660156 210.050781 C 343.582031 210.964844 343.210938 211.734375 342.800781 212.484375 C 342.417969 213.195312 341.996094 213.882812 341.792969 214.679688 C 341.480469 215.898438 341.265625 218.164062 340.714844 219.238281 C 340.28125 220.082031 339.898438 220.976562 339.554688 221.859375 C 339.332031 222.425781 339.066406 223.46875 338.757812 223.984375 C 338.132812 225.027344 337.308594 225.988281 336.683594 226.992188 C 336.652344 227.039062 336.621094 227.089844 336.589844 227.140625 C 336.703125 227.050781 336.839844 226.972656 336.992188 226.902344 C 337.253906 226.777344 337.5625 226.667969 337.730469 226.441406 C 339.207031 224.4375 340.78125 222.394531 341.460938 219.972656 C 341.863281 218.53125 342.253906 217.144531 342.761719 215.792969 C 342.90625 215.410156 343.007812 214.898438 343.152344 214.433594 C 343.253906 214.09375 343.382812 213.777344 343.5625 213.539062 C 343.59375 213.492188 343.617188 213.417969 343.636719 213.324219 C 343.675781 213.144531 343.699219 212.90625 343.714844 212.652344 C 343.761719 211.953125 343.78125 211.121094 343.953125 210.761719 C 343.980469 210.703125 343.96875 210.621094 343.957031 210.527344 C 343.941406 210.390625 343.90625 210.238281 343.886719 210.089844 C 343.847656 209.835938 343.851562 209.597656 343.941406 209.441406 C 344.84375 207.886719 345.066406 206.195312 345.078125 204.410156 Z M 344.578125 205.082031 C 343.660156 206.730469 342.746094 208.488281 342.089844 210.34375 C 341.304688 212.574219 340.785156 214.78125 340.199219 217.070312 C 339.898438 218.257812 339.265625 219.34375 338.632812 220.429688 C 338.019531 221.476562 337.402344 222.523438 337.113281 223.664062 C 336.90625 224.472656 336.765625 225.390625 336.597656 226.3125 C 337.171875 225.46875 337.847656 224.640625 338.378906 223.753906 C 338.675781 223.257812 338.925781 222.246094 339.140625 221.695312 C 339.492188 220.800781 339.878906 219.894531 340.320312 219.039062 C 340.859375 217.984375 341.058594 215.761719 341.363281 214.566406 C 341.574219 213.738281 342.007812 213.011719 342.414062 212.273438 C 342.792969 211.574219 343.144531 210.863281 343.21875 210.015625 C 343.335938 208.617188 344.042969 207.601562 344.394531 206.261719 C 344.492188 205.882812 344.539062 205.484375 344.578125 205.082031 Z M 344.578125 205.082031 " fill-opacity="1" fill-rule="evenodd"/><path fill="#5587ba" d="M 313.84375 223.761719 C 312.683594 223.976562 311.558594 224.453125 310.460938 224.941406 C 310.117188 225.09375 309.617188 225.28125 309.195312 225.515625 C 308.882812 225.6875 308.613281 225.882812 308.457031 226.09375 C 308.394531 226.175781 308.40625 226.246094 308.417969 226.285156 C 308.433594 226.355469 308.476562 226.414062 308.5625 226.445312 L 308.578125 226.449219 C 308.535156 226.511719 308.492188 226.578125 308.445312 226.640625 C 308.316406 226.804688 308.425781 226.925781 308.449219 226.949219 C 308.488281 226.988281 308.5625 227.046875 308.6875 227.003906 C 308.703125 227 308.738281 226.980469 308.777344 226.953125 C 308.84375 226.90625 308.96875 226.800781 309.027344 226.761719 C 309.128906 226.691406 309.246094 226.609375 309.367188 226.535156 C 309.457031 226.546875 309.546875 226.550781 309.640625 226.539062 C 309.78125 226.5625 309.898438 226.578125 309.945312 226.574219 C 310.570312 226.515625 311.15625 226.65625 311.71875 226.777344 C 312.335938 226.914062 312.933594 227.027344 313.523438 226.902344 C 314.179688 226.769531 314.910156 226.847656 315.558594 226.695312 C 315.714844 226.660156 315.914062 226.5625 316.117188 226.488281 C 316.261719 226.4375 316.40625 226.386719 316.523438 226.421875 C 317.234375 226.644531 317.871094 227.101562 318.539062 227.414062 C 318.644531 227.464844 318.800781 227.492188 318.972656 227.503906 C 319.1875 227.519531 319.425781 227.507812 319.605469 227.496094 C 319.601562 227.511719 319.601562 227.53125 319.597656 227.546875 C 319.59375 227.644531 319.609375 227.742188 319.660156 227.832031 C 319.734375 227.964844 319.851562 228.054688 319.980469 228.125 C 320.039062 228.152344 320.097656 228.179688 320.152344 228.210938 C 320.199219 228.238281 320.25 228.265625 320.277344 228.3125 C 320.296875 228.34375 320.289062 228.382812 320.285156 228.417969 C 320.277344 228.476562 320.269531 228.539062 320.261719 228.59375 C 320.246094 228.75 320.261719 228.898438 320.351562 229.019531 C 320.46875 229.183594 320.652344 229.3125 320.84375 229.4375 C 320.996094 229.535156 321.15625 229.628906 321.273438 229.753906 C 322.046875 230.5625 322.460938 231.339844 323.359375 232.054688 C 323.351562 232.167969 323.335938 232.460938 323.417969 232.714844 C 323.679688 233.496094 323.988281 234.40625 324.390625 235.085938 C 325.089844 236.261719 325.84375 236.855469 326.75 237.820312 C 326.917969 237.996094 327.003906 238.292969 327.085938 238.597656 C 327.183594 238.957031 327.273438 239.328125 327.421875 239.597656 C 328.5625 241.636719 329.304688 243.546875 329.914062 245.773438 C 330.214844 246.878906 330.253906 248.160156 330.3125 249.4375 C 330.378906 250.75 330.46875 252.058594 330.875 253.164062 C 330.992188 253.480469 331.035156 253.785156 331.019531 254.054688 C 331.003906 254.34375 330.921875 254.589844 330.789062 254.746094 C 330.683594 254.863281 330.546875 254.917969 330.390625 254.871094 C 330.273438 254.835938 330.148438 254.902344 330.113281 255.019531 C 330.078125 255.136719 330.144531 255.261719 330.261719 255.296875 C 330.644531 255.410156 330.980469 255.257812 331.203125 254.929688 C 331.480469 254.515625 331.574219 253.785156 331.292969 253.011719 C 330.898438 251.945312 330.816406 250.683594 330.757812 249.414062 C 330.695312 248.105469 330.652344 246.789062 330.339844 245.65625 C 329.71875 243.394531 328.96875 241.453125 327.808594 239.382812 C 327.644531 239.089844 327.570312 238.652344 327.453125 238.273438 C 327.363281 237.972656 327.246094 237.699219 327.074219 237.515625 C 326.1875 236.578125 325.449219 236.007812 324.773438 234.859375 C 324.386719 234.207031 324.089844 233.332031 323.839844 232.574219 C 323.75 232.304688 323.8125 232.082031 323.808594 231.976562 C 323.800781 231.867188 323.753906 231.800781 323.699219 231.757812 C 322.769531 231.042969 322.371094 230.261719 321.597656 229.445312 C 321.457031 229.296875 321.265625 229.179688 321.085938 229.0625 C 320.941406 228.972656 320.800781 228.882812 320.710938 228.757812 C 320.691406 228.730469 320.699219 228.699219 320.699219 228.664062 C 320.707031 228.609375 320.714844 228.550781 320.722656 228.496094 C 320.738281 228.34375 320.730469 228.203125 320.65625 228.082031 C 320.578125 227.957031 320.460938 227.871094 320.332031 227.804688 C 320.277344 227.777344 320.222656 227.75 320.167969 227.71875 C 320.121094 227.691406 320.074219 227.664062 320.046875 227.617188 C 320.03125 227.589844 320.042969 227.558594 320.046875 227.53125 C 320.050781 227.484375 320.0625 227.433594 320.070312 227.394531 C 320.082031 227.289062 320.070312 227.203125 320.035156 227.144531 C 320.03125 227.136719 319.964844 227.019531 319.796875 227.035156 C 319.710938 227.039062 319.417969 227.074219 319.132812 227.066406 C 318.976562 227.066406 318.820312 227.058594 318.722656 227.011719 C 318.039062 226.695312 317.386719 226.226562 316.65625 226 C 316.492188 225.949219 316.292969 225.96875 316.09375 226.03125 C 315.867188 226.101562 315.632812 226.222656 315.457031 226.265625 C 314.8125 226.417969 314.085938 226.335938 313.433594 226.46875 C 312.902344 226.578125 312.367188 226.464844 311.8125 226.34375 C 311.410156 226.257812 310.996094 226.164062 310.566406 226.132812 C 310.777344 226.035156 310.996094 225.921875 311.210938 225.808594 C 311.335938 225.765625 311.460938 225.722656 311.589844 225.679688 C 312.566406 225.359375 313.734375 225.347656 314.734375 225.167969 C 315.035156 225.117188 315.332031 225.011719 315.628906 224.933594 C 315.890625 224.859375 316.152344 224.804688 316.417969 224.839844 C 317 224.917969 317.625 225.253906 318.175781 225.4375 C 318.675781 225.605469 319.390625 225.769531 320.03125 226.011719 C 320.429688 226.164062 320.800781 226.347656 321.058594 226.589844 C 322.085938 227.550781 322.847656 228.8125 323.589844 229.992188 C 323.988281 230.628906 324.65625 231.105469 325.097656 231.714844 C 325.507812 232.28125 325.746094 232.960938 326.136719 233.558594 C 326.441406 234.019531 326.835938 234.398438 327.214844 234.792969 C 327.566406 235.15625 327.90625 235.527344 328.125 236.003906 C 328.519531 236.855469 328.648438 237.839844 328.757812 238.832031 C 328.871094 239.867188 328.96875 240.90625 329.292969 241.828125 C 329.65625 242.851562 330.394531 243.742188 330.734375 244.699219 C 331.324219 246.367188 331.058594 247.539062 331.046875 249.253906 C 331.042969 249.925781 330.941406 250.433594 331.152344 251.089844 C 331.160156 251.117188 331.332031 251.558594 331.375 251.640625 C 331.480469 251.839844 331.679688 251.753906 331.707031 251.734375 C 331.867188 251.625 331.992188 251.371094 332.0625 251.042969 C 332.191406 250.414062 332.164062 249.488281 332.140625 249.144531 C 332.085938 248.296875 332.050781 247.523438 331.972656 246.765625 C 332.003906 246.785156 332.035156 246.789062 332.050781 246.789062 C 332.105469 246.796875 332.191406 246.789062 332.261719 246.691406 C 332.277344 246.671875 332.304688 246.621094 332.324219 246.546875 C 332.375 246.382812 332.441406 246.046875 332.476562 245.898438 C 332.488281 245.851562 332.507812 245.835938 332.53125 245.800781 C 332.578125 245.738281 332.648438 245.640625 332.75 245.417969 C 332.78125 245.359375 332.796875 245.246094 332.792969 245.105469 C 332.78125 244.902344 332.730469 244.628906 332.734375 244.566406 C 332.828125 242.917969 333.082031 240.847656 332.675781 239.183594 C 332.46875 238.328125 332.011719 237.414062 331.867188 236.570312 C 331.625 235.15625 330.597656 233.015625 330.183594 231.417969 C 330.066406 230.96875 329.941406 230.300781 329.734375 229.71875 C 329.585938 229.296875 329.390625 228.921875 329.140625 228.6875 C 328.21875 227.824219 327.074219 227.164062 326.128906 226.367188 C 325.558594 225.882812 324.59375 224.890625 323.660156 224.09375 C 323.007812 223.539062 322.371094 223.082031 321.878906 222.933594 C 321.257812 222.742188 320.585938 222.816406 319.914062 222.980469 C 319.554688 223.066406 319.195312 223.179688 318.84375 223.277344 C 318.667969 223.261719 318.492188 223.253906 318.332031 223.246094 C 317.882812 223.230469 317.511719 223.257812 317.339844 223.324219 C 317.253906 223.355469 317.160156 223.398438 317.0625 223.445312 C 316.792969 223.394531 316.527344 223.328125 316.238281 223.289062 C 315.394531 223.179688 314.589844 223.40625 313.84375 223.761719 Z M 331.554688 247.039062 C 331.554688 247.730469 331.496094 248.433594 331.488281 249.257812 C 331.484375 249.875 331.378906 250.351562 331.574219 250.957031 C 331.578125 250.960938 331.589844 250.992188 331.605469 251.039062 C 331.613281 251.011719 331.621094 250.980469 331.628906 250.949219 C 331.75 250.363281 331.71875 249.496094 331.699219 249.171875 C 331.648438 248.417969 331.621094 247.71875 331.554688 247.039062 Z M 318.886719 223.726562 C 318.644531 223.792969 318.40625 223.859375 318.175781 223.902344 C 317.792969 223.976562 317.460938 223.953125 317.136719 223.902344 C 317.0625 223.9375 316.984375 223.976562 316.90625 224.011719 C 317.824219 224.15625 318.804688 224.5625 319.679688 224.75 C 320.519531 224.933594 321.289062 224.910156 322.058594 225.398438 C 322.449219 225.648438 322.726562 226.046875 322.988281 226.46875 C 323.21875 226.839844 323.433594 227.230469 323.726562 227.503906 C 324.894531 228.597656 325.957031 229.460938 326.992188 230.699219 C 327.433594 231.226562 327.632812 231.910156 327.796875 232.613281 C 327.945312 233.253906 328.066406 233.910156 328.363281 234.441406 C 329.171875 235.890625 329.585938 237.480469 329.953125 239.09375 C 330.316406 240.671875 330.628906 242.269531 331.242188 243.753906 C 331.542969 244.484375 331.726562 245.175781 331.847656 245.867188 C 331.855469 245.722656 331.867188 245.570312 331.871094 245.417969 C 331.882812 245.050781 331.871094 244.675781 331.726562 244.414062 C 331.707031 244.378906 331.53125 243.757812 331.414062 243.1875 C 331.332031 242.789062 331.285156 242.414062 331.316406 242.257812 C 331.40625 241.808594 331.425781 240.488281 331.34375 239.550781 C 331.308594 239.171875 331.265625 238.859375 331.195312 238.707031 C 331.054688 238.398438 330.800781 238.027344 330.601562 237.660156 C 330.457031 237.390625 330.34375 237.117188 330.308594 236.875 C 330.277344 236.636719 330.296875 236.015625 330.25 235.464844 C 330.222656 235.144531 330.183594 234.847656 330.074219 234.695312 C 329.660156 234.125 329.09375 233.53125 328.820312 232.941406 C 328.691406 232.664062 328.695312 232.09375 328.664062 231.476562 C 328.636719 230.9375 328.574219 230.355469 328.292969 229.96875 C 327.515625 228.894531 326.394531 228.453125 325.199219 227.917969 C 325.078125 227.863281 324.953125 227.722656 324.847656 227.542969 C 324.738281 227.359375 324.636719 227.132812 324.523438 227.027344 C 324.09375 226.625 322.902344 225.449219 321.9375 224.683594 C 321.550781 224.375 321.203125 224.128906 320.96875 224.046875 C 320.644531 223.9375 319.722656 223.792969 318.886719 223.726562 Z M 332.347656 245.242188 C 332.347656 245.222656 332.347656 245.113281 332.34375 245.039062 C 332.324219 244.832031 332.289062 244.597656 332.292969 244.542969 C 332.386719 242.933594 332.640625 240.910156 332.246094 239.285156 C 332.035156 238.421875 331.574219 237.5 331.429688 236.644531 C 331.191406 235.242188 330.167969 233.117188 329.753906 231.53125 C 329.636719 231.089844 329.519531 230.4375 329.316406 229.867188 C 329.195312 229.519531 329.042969 229.203125 328.835938 229.007812 C 327.921875 228.152344 326.785156 227.496094 325.84375 226.707031 C 325.269531 226.222656 324.304688 225.226562 323.371094 224.429688 C 322.777344 223.921875 322.199219 223.492188 321.75 223.355469 C 321.203125 223.1875 320.613281 223.269531 320.023438 223.410156 C 320.503906 223.480469 320.914062 223.558594 321.113281 223.628906 C 321.378906 223.722656 321.777344 223.984375 322.214844 224.335938 C 323.1875 225.109375 324.394531 226.296875 324.828125 226.703125 C 324.945312 226.8125 325.058594 227.019531 325.167969 227.214844 C 325.214844 227.292969 325.257812 227.371094 325.304688 227.433594 C 325.332031 227.46875 325.351562 227.5 325.382812 227.511719 C 326.652344 228.082031 327.828125 228.570312 328.652344 229.707031 C 328.980469 230.160156 329.074219 230.824219 329.105469 231.453125 C 329.125 231.796875 329.125 232.128906 329.148438 232.394531 C 329.164062 232.542969 329.179688 232.667969 329.222656 232.753906 C 329.484375 233.324219 330.035156 233.886719 330.429688 234.4375 C 330.574219 234.632812 330.65625 235.011719 330.691406 235.425781 C 330.738281 235.96875 330.714844 236.578125 330.75 236.8125 C 330.785156 237.066406 330.933594 237.347656 331.09375 237.632812 C 331.273438 237.945312 331.476562 238.257812 331.597656 238.519531 C 331.679688 238.699219 331.746094 239.066406 331.785156 239.511719 C 331.871094 240.492188 331.84375 241.875 331.753906 242.347656 C 331.726562 242.472656 331.78125 242.777344 331.847656 243.097656 C 331.945312 243.574219 332.082031 244.085938 332.121094 244.210938 C 332.261719 244.472656 332.3125 244.816406 332.316406 245.175781 C 332.316406 245.21875 332.316406 245.257812 332.316406 245.300781 L 332.332031 245.269531 Z M 328.773438 236.453125 C 329.003906 237.183594 329.109375 237.980469 329.199219 238.785156 C 329.308594 239.78125 329.398438 240.789062 329.710938 241.679688 C 329.953125 242.359375 330.359375 242.980469 330.707031 243.601562 C 330.164062 242.1875 329.863281 240.679688 329.523438 239.191406 C 329.3125 238.265625 329.085938 237.34375 328.773438 236.453125 Z M 316.589844 224.417969 C 317.167969 224.523438 317.777344 224.835938 318.316406 225.015625 C 318.824219 225.1875 319.542969 225.351562 320.1875 225.597656 C 320.644531 225.773438 321.066406 225.988281 321.363281 226.265625 C 322.417969 227.253906 323.203125 228.546875 323.964844 229.753906 C 324.359375 230.382812 325.019531 230.851562 325.457031 231.457031 C 325.871094 232.027344 326.113281 232.714844 326.507812 233.3125 C 326.796875 233.753906 327.171875 234.113281 327.53125 234.484375 C 327.917969 234.882812 328.285156 235.296875 328.527344 235.820312 C 328.542969 235.847656 328.554688 235.871094 328.566406 235.898438 C 328.394531 235.476562 328.199219 235.058594 327.976562 234.65625 C 327.660156 234.09375 327.523438 233.398438 327.363281 232.710938 C 327.21875 232.082031 327.050781 231.460938 326.652344 230.984375 C 325.628906 229.761719 324.578125 228.90625 323.421875 227.828125 C 323.101562 227.527344 322.863281 227.109375 322.609375 226.703125 C 322.386719 226.339844 322.15625 225.988281 321.820312 225.773438 C 321.101562 225.316406 320.375 225.351562 319.585938 225.1875 C 318.636719 224.980469 317.5625 224.503906 316.589844 224.417969 Z M 312.304688 224.652344 C 311.742188 224.859375 311.1875 225.101562 310.640625 225.34375 C 310.457031 225.425781 310.226562 225.519531 309.988281 225.625 C 310.011719 225.664062 310.023438 225.710938 310.019531 225.761719 C 310.019531 225.765625 310.019531 225.773438 310.019531 225.777344 L 310.195312 225.710938 C 310.234375 225.695312 310.277344 225.679688 310.316406 225.664062 L 310.417969 225.625 C 310.878906 225.34375 311.382812 225.085938 311.898438 224.902344 C 312.050781 224.8125 312.191406 224.726562 312.304688 224.652344 Z M 315.964844 224.40625 C 315.15625 224.4375 314.480469 224.644531 313.746094 224.859375 C 314.058594 224.824219 314.363281 224.785156 314.65625 224.730469 C 314.941406 224.679688 315.226562 224.582031 315.511719 224.503906 C 315.660156 224.460938 315.8125 224.425781 315.964844 224.40625 Z M 314.992188 224.082031 C 314.648438 224.085938 314.308594 224.125 313.972656 224.183594 C 313.769531 224.285156 313.570312 224.394531 313.375 224.507812 C 313.933594 224.351562 314.449219 224.1875 314.992188 224.082031 Z M 316.039062 223.714844 C 316.078125 223.71875 316.117188 223.726562 316.15625 223.734375 C 316.195312 223.742188 316.234375 223.742188 316.273438 223.742188 C 316.242188 223.734375 316.210938 223.730469 316.179688 223.726562 C 316.132812 223.722656 316.085938 223.71875 316.039062 223.714844 Z M 316.039062 223.714844 " fill-opacity="1" fill-rule="evenodd"/><path fill="#5587ba" d="M 310.34375 204.832031 C 310.230469 204.902344 310.125 204.976562 310.027344 205.042969 C 309.742188 205.246094 309.527344 205.4375 309.453125 205.558594 C 309.417969 205.617188 309.382812 205.679688 309.347656 205.75 C 309.167969 205.839844 308.980469 205.917969 308.792969 206.023438 C 308.234375 206.347656 307.847656 206.859375 307.558594 207.417969 C 306.960938 208.082031 306.503906 208.882812 306.070312 209.679688 C 305.933594 209.925781 305.71875 210.273438 305.570312 210.605469 C 305.460938 210.859375 305.386719 211.109375 305.390625 211.3125 C 305.390625 211.414062 305.441406 211.460938 305.476562 211.488281 C 305.519531 211.523438 305.570312 211.542969 305.628906 211.539062 C 305.628906 211.574219 305.632812 211.609375 305.632812 211.644531 C 305.628906 211.851562 305.792969 211.878906 305.824219 211.882812 C 305.875 211.890625 305.972656 211.890625 306.042969 211.78125 C 306.054688 211.769531 306.070312 211.738281 306.082031 211.699219 C 306.101562 211.640625 306.128906 211.519531 306.144531 211.46875 C 306.171875 211.386719 306.199219 211.289062 306.234375 211.199219 C 306.289062 211.164062 306.339844 211.128906 306.390625 211.082031 C 306.484375 211.03125 306.5625 210.984375 306.589844 210.960938 C 306.933594 210.644531 307.34375 210.460938 307.734375 210.28125 C 308.175781 210.074219 308.589844 209.863281 308.890625 209.515625 C 309.222656 209.132812 309.699219 208.847656 310.019531 208.457031 C 310.09375 208.363281 310.171875 208.210938 310.261719 208.074219 C 310.316406 207.988281 310.371094 207.898438 310.445312 207.867188 C 310.972656 207.679688 311.558594 207.664062 312.101562 207.542969 C 312.191406 207.523438 312.304688 207.46875 312.421875 207.390625 C 312.539062 207.316406 312.65625 207.21875 312.753906 207.132812 C 312.800781 207.195312 312.859375 207.246094 312.929688 207.277344 C 313.046875 207.328125 313.167969 207.328125 313.289062 207.308594 C 313.335938 207.300781 313.382812 207.289062 313.429688 207.285156 C 313.457031 207.277344 313.488281 207.273438 313.519531 207.28125 C 313.523438 207.285156 313.539062 207.308594 313.546875 207.324219 C 313.570312 207.359375 313.59375 207.398438 313.617188 207.4375 C 313.683594 207.550781 313.773438 207.636719 313.894531 207.675781 C 314.019531 207.710938 314.160156 207.71875 314.308594 207.707031 C 314.46875 207.699219 314.636719 207.667969 314.789062 207.691406 C 315.617188 207.824219 316.21875 208.097656 317.074219 208.117188 C 317.128906 208.203125 317.25 208.371094 317.410156 208.476562 C 317.925781 208.832031 318.535156 209.234375 319.085938 209.460938 C 320.046875 209.847656 320.773438 209.859375 321.761719 210.019531 C 321.9375 210.050781 322.117188 210.1875 322.296875 210.324219 C 322.523438 210.496094 322.75 210.683594 322.96875 210.777344 C 324.578125 211.472656 325.894531 212.277344 327.273438 213.328125 C 327.957031 213.851562 328.566406 214.601562 329.183594 215.332031 C 329.828125 216.09375 330.484375 216.839844 331.238281 217.320312 C 331.445312 217.453125 331.605469 217.609375 331.71875 217.773438 C 331.832031 217.941406 331.894531 218.113281 331.882812 218.257812 C 331.878906 218.355469 331.832031 218.433594 331.738281 218.46875 C 331.625 218.511719 331.566406 218.640625 331.609375 218.753906 C 331.652344 218.867188 331.78125 218.925781 331.894531 218.882812 C 332.199219 218.765625 332.347656 218.503906 332.328125 218.179688 C 332.304688 217.792969 332.019531 217.292969 331.476562 216.945312 C 330.757812 216.488281 330.136719 215.773438 329.523438 215.046875 C 328.882812 214.289062 328.25 213.515625 327.542969 212.976562 C 326.132812 211.902344 324.789062 211.082031 323.144531 210.371094 C 322.914062 210.269531 322.671875 210.046875 322.433594 209.871094 C 322.230469 209.730469 322.03125 209.617188 321.835938 209.585938 C 320.878906 209.425781 320.179688 209.421875 319.253906 209.050781 C 318.726562 208.835938 318.152344 208.449219 317.660156 208.113281 C 317.484375 207.996094 317.425781 207.835938 317.375 207.777344 C 317.308594 207.703125 317.234375 207.679688 317.167969 207.675781 C 316.289062 207.675781 315.695312 207.386719 314.859375 207.253906 C 314.703125 207.230469 314.535156 207.246094 314.367188 207.261719 C 314.246094 207.269531 314.128906 207.28125 314.027344 207.253906 C 314.023438 207.246094 314.007812 207.230469 314.003906 207.21875 C 313.980469 207.1875 313.960938 207.148438 313.9375 207.113281 C 313.875 207.003906 313.792969 206.914062 313.683594 206.871094 C 313.570312 206.828125 313.453125 206.828125 313.332031 206.851562 C 313.289062 206.859375 313.242188 206.867188 313.199219 206.875 C 313.167969 206.878906 313.140625 206.882812 313.113281 206.875 C 313.109375 206.867188 313.097656 206.851562 313.09375 206.84375 C 313.074219 206.8125 313.058594 206.777344 313.042969 206.75 C 313 206.667969 312.941406 206.617188 312.886719 206.59375 C 312.878906 206.589844 312.753906 206.535156 312.632812 206.644531 C 312.585938 206.691406 312.425781 206.839844 312.253906 206.96875 C 312.164062 207.035156 312.078125 207.097656 312.003906 207.113281 C 311.445312 207.234375 310.839844 207.253906 310.296875 207.453125 C 310.164062 207.5 310.046875 207.609375 309.945312 207.75 C 309.84375 207.894531 309.761719 208.074219 309.675781 208.175781 C 309.359375 208.5625 308.886719 208.847656 308.558594 209.222656 C 308.292969 209.527344 307.929688 209.699219 307.546875 209.878906 C 307.320312 209.984375 307.085938 210.09375 306.863281 210.222656 C 306.914062 210.121094 306.960938 210.015625 307.011719 209.910156 C 307.0625 209.828125 307.121094 209.746094 307.175781 209.664062 C 307.613281 209.023438 308.304688 208.484375 308.820312 207.921875 C 308.976562 207.753906 309.109375 207.554688 309.25 207.367188 C 309.371094 207.210938 309.5 207.0625 309.667969 206.964844 C 310.046875 206.746094 310.574219 206.664062 310.984375 206.523438 C 311.363281 206.394531 311.863281 206.167969 312.355469 206.019531 C 312.660156 205.929688 312.957031 205.871094 313.21875 205.898438 C 314.269531 206.003906 315.296875 206.410156 316.277344 206.773438 C 316.808594 206.972656 317.425781 206.953125 317.972656 207.121094 C 318.476562 207.269531 318.929688 207.570312 319.433594 207.746094 C 319.832031 207.886719 320.246094 207.933594 320.65625 207.996094 C 321.027344 208.050781 321.398438 208.117188 321.742188 208.300781 C 322.363281 208.625 322.882812 209.15625 323.398438 209.695312 C 323.945312 210.265625 324.480469 210.847656 325.101562 211.25 C 325.789062 211.699219 326.636719 211.894531 327.277344 212.3125 C 328.390625 213.039062 328.761719 213.859375 329.539062 214.886719 C 329.84375 215.292969 330.023438 215.648438 330.453125 215.949219 C 330.46875 215.960938 330.78125 216.152344 330.847656 216.183594 C 331.046875 216.277344 331.152344 216.085938 331.160156 216.054688 C 331.210938 215.90625 331.171875 215.683594 331.054688 215.4375 C 330.84375 214.996094 330.398438 214.449219 330.226562 214.25 C 329.824219 213.789062 329.464844 213.359375 329.089844 212.960938 C 329.136719 212.929688 329.195312 212.871094 329.191406 212.761719 C 329.191406 212.738281 329.183594 212.6875 329.15625 212.625 C 329.113281 212.507812 328.996094 212.273438 328.953125 212.164062 C 328.933594 212.125 328.945312 212.109375 328.941406 212.0625 C 328.941406 212 328.933594 211.914062 328.902344 211.765625 C 328.890625 211.710938 328.84375 211.625 328.769531 211.535156 C 328.679688 211.425781 328.496094 211.246094 328.488281 211.238281 C 327.789062 210.203125 326.988281 208.84375 325.980469 208.03125 C 325.464844 207.613281 324.777344 207.277344 324.304688 206.839844 C 323.511719 206.101562 321.914062 205.285156 320.933594 204.519531 C 320.65625 204.304688 320.273438 203.957031 319.882812 203.703125 C 319.59375 203.511719 319.296875 203.375 319.027344 203.347656 C 318.082031 203.253906 317.09375 203.378906 316.160156 203.335938 C 315.597656 203.308594 314.5625 203.152344 313.640625 203.101562 C 312.988281 203.066406 312.386719 203.089844 312.019531 203.226562 C 311.550781 203.398438 311.175781 203.757812 310.84375 204.167969 C 310.667969 204.382812 310.503906 204.613281 310.34375 204.832031 Z M 329.53125 214.125 C 329.644531 214.285156 329.761719 214.449219 329.890625 214.621094 C 330.136719 214.949219 330.285156 215.242188 330.585938 215.496094 L 330.566406 215.457031 C 330.351562 215.089844 330.027344 214.699219 329.894531 214.542969 C 329.769531 214.398438 329.648438 214.261719 329.53125 214.125 Z M 328.210938 212.121094 C 328.070312 211.9375 327.921875 211.765625 327.75 211.691406 C 327.722656 211.679688 327.324219 211.386719 326.988281 211.089844 C 326.75 210.882812 326.546875 210.671875 326.492188 210.5625 C 326.339844 210.253906 325.75 209.460938 325.277344 208.9375 C 325.089844 208.734375 324.925781 208.570312 324.816406 208.515625 C 324.589844 208.394531 324.269531 208.289062 323.984375 208.160156 C 323.765625 208.058594 323.570312 207.945312 323.433594 207.8125 C 323.304688 207.683594 323.035156 207.300781 322.75 206.992188 C 322.597656 206.820312 322.449219 206.667969 322.316406 206.628906 C 321.804688 206.472656 321.191406 206.378906 320.753906 206.148438 C 320.582031 206.058594 320.371094 205.808594 320.136719 205.523438 C 319.84375 205.164062 319.5 204.734375 319.089844 204.609375 C 318.140625 204.324219 317.273438 204.574219 316.324219 204.796875 C 316.214844 204.820312 316.066406 204.792969 315.90625 204.730469 C 315.761719 204.675781 315.605469 204.585938 315.492188 204.574219 C 315.050781 204.53125 313.800781 204.371094 312.875 204.351562 C 312.507812 204.34375 312.195312 204.355469 312.019531 204.414062 C 311.777344 204.492188 311.171875 204.824219 310.648438 205.160156 C 310.535156 205.3125 310.421875 205.457031 310.304688 205.589844 C 310.109375 205.808594 309.902344 205.949219 309.683594 206.066406 L 309.679688 206.074219 C 310.269531 205.785156 310.96875 205.589844 311.53125 205.324219 C 312.121094 205.042969 312.582031 204.679688 313.273438 204.621094 C 313.628906 204.589844 313.984375 204.703125 314.339844 204.835938 C 314.644531 204.953125 314.945312 205.085938 315.242188 205.117188 C 316.445312 205.238281 317.480469 205.269531 318.667969 205.539062 C 319.183594 205.65625 319.625 205.976562 320.050781 206.324219 C 320.429688 206.640625 320.796875 206.976562 321.214844 207.15625 C 322.367188 207.65625 323.347656 208.421875 324.308594 209.222656 C 325.246094 210.003906 326.164062 210.8125 327.207031 211.421875 C 327.582031 211.640625 327.910156 211.871094 328.210938 212.121094 Z M 328.019531 211.332031 C 327.367188 210.351562 326.628906 209.125 325.703125 208.375 C 325.179688 207.953125 324.480469 207.609375 324.003906 207.164062 C 323.21875 206.433594 321.632812 205.628906 320.660156 204.871094 C 320.390625 204.660156 320.019531 204.320312 319.640625 204.074219 C 319.417969 203.925781 319.191406 203.808594 318.984375 203.789062 C 318.046875 203.695312 317.0625 203.820312 316.140625 203.777344 C 315.574219 203.75 314.539062 203.59375 313.617188 203.546875 C 313.035156 203.515625 312.5 203.519531 312.175781 203.640625 C 311.867188 203.753906 311.609375 203.972656 311.378906 204.226562 C 311.589844 204.113281 311.773438 204.03125 311.882812 203.992188 C 312.085938 203.925781 312.453125 203.902344 312.882812 203.910156 C 313.824219 203.929688 315.089844 204.089844 315.535156 204.132812 C 315.660156 204.144531 315.832031 204.21875 315.992188 204.289062 C 316.054688 204.3125 316.113281 204.339844 316.167969 204.351562 C 316.1875 204.359375 316.207031 204.367188 316.222656 204.367188 C 317.25 204.121094 318.191406 203.875 319.214844 204.183594 C 319.628906 204.308594 320 204.671875 320.3125 205.039062 C 320.480469 205.238281 320.632812 205.433594 320.769531 205.582031 C 320.839844 205.660156 320.898438 205.722656 320.960938 205.753906 C 321.375 205.972656 321.960938 206.058594 322.445312 206.203125 C 322.589844 206.246094 322.761719 206.371094 322.929688 206.539062 C 323.257812 206.859375 323.597656 207.347656 323.746094 207.496094 C 323.878906 207.628906 324.089844 207.726562 324.308594 207.816406 C 324.5625 207.921875 324.828125 208.019531 325.023438 208.121094 C 325.160156 208.195312 325.371094 208.386719 325.605469 208.640625 C 326.105469 209.195312 326.730469 210.042969 326.890625 210.367188 C 326.929688 210.449219 327.097656 210.601562 327.277344 210.757812 C 327.539062 210.984375 327.914062 211.269531 327.945312 211.292969 C 327.96875 211.304688 327.992188 211.316406 328.019531 211.332031 Z M 323.367188 209.027344 C 323.488281 209.144531 323.601562 209.265625 323.71875 209.386719 C 324.242188 209.933594 324.75 210.492188 325.34375 210.878906 C 325.632812 211.066406 325.949219 211.210938 326.265625 211.34375 C 325.484375 210.804688 324.761719 210.175781 324.027344 209.5625 C 323.808594 209.382812 323.589844 209.203125 323.367188 209.027344 Z M 306.40625 209.984375 C 306.351562 210.082031 306.285156 210.191406 306.21875 210.308594 L 306.226562 210.316406 L 306.261719 210.257812 L 306.355469 210.109375 C 306.371094 210.066406 306.390625 210.023438 306.40625 209.984375 Z M 321.234375 207.652344 C 321.167969 207.621094 321.101562 207.589844 321.039062 207.5625 C 320.585938 207.367188 320.183594 207.007812 319.769531 206.667969 C 319.398438 206.363281 319.019531 206.070312 318.570312 205.96875 C 317.402344 205.707031 316.382812 205.675781 315.199219 205.558594 C 314.867188 205.523438 314.523438 205.382812 314.183594 205.25 C 313.890625 205.140625 313.601562 205.035156 313.308594 205.0625 C 312.675781 205.117188 312.261719 205.46875 311.71875 205.726562 C 311.324219 205.910156 310.859375 206.058594 310.414062 206.230469 C 310.5625 206.191406 310.707031 206.148438 310.84375 206.105469 C 311.222656 205.972656 311.730469 205.742188 312.230469 205.59375 C 312.59375 205.488281 312.949219 205.425781 313.261719 205.457031 C 314.351562 205.566406 315.417969 205.980469 316.429688 206.359375 C 316.953125 206.554688 317.5625 206.535156 318.101562 206.695312 C 318.609375 206.847656 319.070312 207.148438 319.582031 207.328125 C 319.953125 207.457031 320.339844 207.5 320.722656 207.558594 C 320.894531 207.582031 321.066406 207.613281 321.234375 207.652344 Z M 307.9375 207.65625 L 307.917969 207.675781 L 307.914062 207.691406 L 307.925781 207.671875 Z M 307.9375 207.65625 " fill-opacity="1" fill-rule="evenodd"/><path fill="#34426e" d="M 342.820312 286.902344 C 339.558594 286.902344 336.925781 284.257812 336.925781 280.996094 C 336.925781 276.878906 336.925781 272.117188 336.925781 272.117188 L 323.429688 272.117188 C 323.429688 272.117188 323.429688 277.429688 323.429688 281.6875 C 323.429688 284.566406 321.0625 286.902344 318.203125 286.902344 C 316.820312 286.902344 315.480469 287.445312 314.539062 288.425781 C 313.558594 289.402344 312.976562 290.730469 312.976562 292.109375 C 312.976562 299.320312 312.976562 312.699219 312.976562 323.734375 C 312.976562 333.597656 320.972656 341.597656 330.847656 341.597656 C 340.722656 341.597656 348.71875 333.597656 348.71875 323.734375 C 348.71875 313.046875 348.71875 300.15625 348.71875 292.808594 C 348.71875 289.542969 346.082031 286.902344 342.820312 286.902344 Z M 342.820312 286.902344 " fill-opacity="1" fill-rule="evenodd"/><path fill="#d3e8fb" d="M 258.617188 303.195312 C 265.265625 332.710938 276.609375 360.101562 276.609375 360.101562 C 251.382812 369.800781 125.539062 369.621094 98.039062 360.101562 C 98.039062 360.101562 118.597656 310.71875 120.683594 273.128906 C 120.683594 273.128906 115.765625 249.695312 110.167969 223.027344 C 106.167969 203.953125 97.066406 183.710938 111.003906 166.976562 C 121.949219 153.839844 159.832031 145.613281 159.832031 145.613281 L 160.363281 175.078125 C 174.761719 180.46875 205.074219 180.242188 214.429688 173.445312 L 214.933594 145.613281 C 214.933594 145.613281 252.8125 153.839844 263.757812 166.976562 C 273.707031 178.925781 276.875 193.164062 276.421875 207.273438 C 278 221.125 280.917969 257.183594 280.050781 264.105469 C 277.59375 283.648438 269 295.828125 258.617188 303.195312 Z M 258.617188 303.195312 " fill-opacity="1" fill-rule="evenodd"/><path fill="#5587ba" d="M 183.375 6.007812 C 215.9375 6.007812 242.371094 38.554688 242.371094 73.222656 C 242.371094 81.410156 236.058594 112.03125 245.0625 133.148438 C 249.472656 143.496094 255.5625 173.613281 262.976562 202.15625 C 271.011719 233.125 280.21875 262.238281 280.21875 262.238281 C 280.21875 262.238281 243.890625 274.859375 227.269531 278.621094 C 174.570312 290.542969 110.054688 165.660156 115.265625 155.878906 C 118.339844 150.109375 125.351562 140.832031 126.636719 134.527344 C 131.195312 112.179688 124.902344 80.6875 124.902344 73.0625 C 124.902344 38.394531 150.816406 6.007812 183.375 6.007812 Z M 183.375 6.007812 " fill-opacity="1" fill-rule="evenodd"/><path fill="#fdb3a1" d="M 185.191406 30.914062 C 185.191406 30.914062 227.257812 46.761719 227.257812 76.035156 C 227.257812 89.933594 225.007812 101.347656 221.046875 110.355469 C 213.378906 127.808594 199.296875 136.246094 182.710938 136.246094 C 169.835938 136.246094 158.800781 131.160156 151.179688 120.722656 C 143.910156 110.773438 140.050781 95.953125 140.050781 76.035156 C 140.050781 46.140625 185.191406 30.914062 185.191406 30.914062 Z M 185.191406 30.914062 " fill-opacity="1" fill-rule="evenodd"/><path fill="#34426e" d="M 140.089844 79.128906 C 140.070312 78.109375 140.058594 77.082031 140.058594 76.039062 C 140.058594 46.140625 185.199219 30.914062 185.199219 30.914062 C 185.199219 30.914062 227.265625 46.761719 227.265625 76.039062 C 227.265625 77.046875 227.253906 78.042969 227.226562 79.03125 C 225.855469 50.691406 185.199219 35.375 185.199219 35.375 C 185.199219 35.375 141.4375 50.136719 140.089844 79.128906 Z M 140.089844 79.128906 " fill-opacity="1" fill-rule="evenodd"/><path fill="#34426e" d="M 149.773438 32.578125 C 149.773438 32.578125 137.339844 58.742188 139.828125 76.589844 C 140.714844 61.109375 144.617188 46.636719 149.773438 32.578125 Z M 149.773438 32.578125 " fill-opacity="1" fill-rule="evenodd"/><path fill="#34426e" d="M 217.65625 32.578125 C 217.65625 32.578125 230.089844 58.742188 227.601562 76.589844 C 226.714844 61.109375 222.808594 46.636719 217.65625 32.578125 Z M 217.65625 32.578125 " fill-opacity="1" fill-rule="evenodd"/><path fill="#34426e" d="M 209.992188 126.15625 C 209.992188 126.15625 195.535156 146.496094 157.203125 149.1875 C 157.203125 149.1875 192.066406 154.585938 209.992188 126.15625 Z M 209.992188 126.15625 " fill-opacity="1" fill-rule="evenodd"/><path fill="#34426e" d="M 198.917969 72.40625 C 198.917969 72.40625 202.570312 68.703125 209.21875 69.6875 C 216.667969 70.785156 217.117188 75.324219 217.117188 75.324219 C 217.703125 71.6875 214.46875 68.539062 209.449219 67.734375 C 204.425781 66.929688 199.503906 68.769531 198.917969 72.40625 Z M 198.917969 72.40625 " fill-opacity="1" fill-rule="evenodd"/><path fill="#34426e" d="M 169.644531 71.59375 C 169.644531 71.59375 165.695312 68.210938 159.152344 69.75 C 151.824219 71.472656 151.753906 76.03125 151.753906 76.03125 C 150.867188 72.457031 153.824219 69.046875 158.761719 67.824219 C 163.699219 66.597656 168.757812 68.019531 169.644531 71.59375 Z M 169.644531 71.59375 " fill-opacity="1" fill-rule="evenodd"/><path fill="#34426e" d="M 171.757812 84.433594 C 171.757812 84.433594 169.265625 81.066406 163.71875 81 C 157.5 80.925781 156.539062 84.433594 156.539062 84.433594 C 156.539062 81.503906 159.585938 79.441406 163.785156 79.441406 C 167.984375 79.441406 171.757812 81.503906 171.757812 84.433594 Z M 171.757812 84.433594 " fill-opacity="1" fill-rule="evenodd"/><path fill="#34426e" d="M 157.582031 82.5625 C 157.582031 82.5625 157.542969 82.226562 157.3125 81.800781 C 157.222656 81.644531 157.109375 81.492188 156.957031 81.339844 C 156.824219 81.199219 156.65625 81.074219 156.460938 80.964844 C 156.335938 80.898438 156.199219 80.84375 156.054688 80.804688 C 155.726562 80.722656 155.359375 80.691406 154.957031 80.757812 C 154.519531 80.828125 154.074219 80.996094 153.566406 81.304688 C 153.5625 81.304688 153.5625 81.3125 153.5625 81.316406 C 153.5625 81.316406 153.570312 81.320312 153.574219 81.316406 C 153.929688 81.242188 154.234375 81.214844 154.523438 81.207031 C 154.859375 81.199219 155.140625 81.246094 155.398438 81.308594 C 155.601562 81.355469 155.773438 81.429688 155.945312 81.5 C 156.0625 81.554688 156.183594 81.601562 156.292969 81.65625 C 156.546875 81.777344 156.769531 81.90625 156.953125 82.039062 C 157.339844 82.328125 157.566406 82.566406 157.566406 82.566406 C 157.566406 82.570312 157.574219 82.574219 157.578125 82.574219 C 157.582031 82.570312 157.585938 82.566406 157.582031 82.5625 Z M 157.582031 82.5625 " fill-opacity="1" fill-rule="evenodd"/><path fill="#34426e" d="M 158.164062 82.226562 C 158.164062 82.226562 158.261719 81.960938 158.28125 81.546875 C 158.285156 81.398438 158.273438 81.25 158.246094 81.082031 C 158.222656 80.929688 158.171875 80.777344 158.097656 80.625 C 158.050781 80.527344 157.988281 80.429688 157.914062 80.34375 C 157.730469 80.125 157.492188 79.933594 157.203125 79.800781 C 156.832031 79.632812 156.410156 79.550781 155.882812 79.617188 C 155.875 79.617188 155.875 79.621094 155.875 79.625 C 155.871094 79.628906 155.875 79.628906 155.878906 79.628906 C 156.332031 79.742188 156.621094 79.941406 156.867188 80.175781 C 157.007812 80.308594 157.101562 80.460938 157.203125 80.613281 C 157.265625 80.714844 157.328125 80.820312 157.390625 80.917969 C 157.453125 81.023438 157.523438 81.117188 157.585938 81.21875 C 157.65625 81.332031 157.71875 81.429688 157.78125 81.535156 C 158.023438 81.9375 158.148438 82.226562 158.148438 82.226562 C 158.148438 82.230469 158.148438 82.230469 158.15625 82.234375 C 158.160156 82.234375 158.164062 82.230469 158.164062 82.226562 Z M 158.164062 82.226562 " fill-opacity="1" fill-rule="evenodd"/><path fill="#34426e" d="M 199.039062 84.433594 C 199.039062 84.433594 201.527344 81.066406 207.078125 81 C 213.292969 80.925781 214.253906 84.433594 214.253906 84.433594 C 214.253906 81.503906 211.210938 79.441406 207.007812 79.441406 C 202.808594 79.441406 199.039062 81.503906 199.039062 84.433594 Z M 199.039062 84.433594 " fill-opacity="1" fill-rule="evenodd"/><path fill="#34426e" d="M 213.214844 82.5625 C 213.214844 82.5625 213.25 82.226562 213.484375 81.800781 C 213.570312 81.644531 213.6875 81.492188 213.835938 81.339844 C 213.972656 81.199219 214.140625 81.074219 214.335938 80.964844 C 214.457031 80.898438 214.597656 80.84375 214.742188 80.804688 C 215.070312 80.722656 215.4375 80.691406 215.835938 80.757812 C 216.273438 80.828125 216.722656 80.996094 217.226562 81.304688 C 217.230469 81.304688 217.234375 81.3125 217.230469 81.316406 C 217.230469 81.316406 217.222656 81.320312 217.21875 81.316406 C 216.867188 81.242188 216.5625 81.214844 216.269531 81.207031 C 215.9375 81.199219 215.65625 81.246094 215.398438 81.308594 C 215.195312 81.355469 215.023438 81.429688 214.851562 81.5 C 214.730469 81.554688 214.613281 81.601562 214.503906 81.65625 C 214.246094 81.777344 214.027344 81.90625 213.84375 82.039062 C 213.453125 82.328125 213.230469 82.566406 213.230469 82.566406 C 213.230469 82.570312 213.222656 82.574219 213.21875 82.574219 C 213.214844 82.570312 213.210938 82.566406 213.214844 82.5625 Z M 213.214844 82.5625 " fill-opacity="1" fill-rule="evenodd"/><path fill="#34426e" d="M 212.628906 82.226562 C 212.628906 82.226562 212.53125 81.960938 212.511719 81.546875 C 212.507812 81.398438 212.519531 81.25 212.546875 81.082031 C 212.570312 80.929688 212.621094 80.777344 212.695312 80.625 C 212.742188 80.527344 212.804688 80.429688 212.878906 80.34375 C 213.0625 80.125 213.300781 79.933594 213.589844 79.800781 C 213.960938 79.632812 214.382812 79.550781 214.910156 79.617188 C 214.917969 79.617188 214.917969 79.621094 214.917969 79.625 C 214.921875 79.628906 214.917969 79.628906 214.914062 79.628906 C 214.460938 79.742188 214.171875 79.941406 213.925781 80.175781 C 213.785156 80.308594 213.691406 80.460938 213.589844 80.613281 C 213.527344 80.714844 213.464844 80.820312 213.402344 80.917969 C 213.339844 81.023438 213.269531 81.117188 213.207031 81.21875 C 213.136719 81.332031 213.074219 81.429688 213.011719 81.535156 C 212.769531 81.9375 212.644531 82.226562 212.644531 82.226562 C 212.644531 82.230469 212.644531 82.230469 212.636719 82.234375 C 212.632812 82.234375 212.628906 82.230469 212.628906 82.226562 Z M 212.628906 82.226562 " fill-opacity="1" fill-rule="evenodd"/><path fill="#34426e" d="M 180.320312 92.992188 C 180.320312 92.992188 181.5 91.457031 184.0625 91.46875 C 186.9375 91.480469 187.355469 93.109375 187.355469 93.109375 C 187.378906 91.753906 185.984375 90.777344 184.042969 90.746094 C 182.101562 90.714844 180.34375 91.640625 180.320312 92.992188 Z M 180.320312 92.992188 " fill-opacity="1" fill-rule="evenodd"/><g clip-path="url(#fe0b597443)"><path fill="#5587ba" d="M 364.820312 333.988281 L 10.074219 333.988281 C 10.074219 354.929688 27.050781 371.90625 47.996094 371.90625 C 116.183594 371.90625 258.710938 371.90625 326.898438 371.90625 C 347.84375 371.90625 364.820312 354.929688 364.820312 333.988281 Z M 364.820312 333.988281 " fill-opacity="1" fill-rule="evenodd"/></g><path fill="#34426e" d="M 262.480469 203.808594 L 101.925781 203.808594 L 109.472656 312.664062 L 257.152344 314.070312 Z M 262.480469 203.808594 " fill-opacity="1" fill-rule="evenodd"/><path fill="#d3e8fb" d="M 179.457031 230.6875 C 178.507812 232.3125 177.964844 234.21875 177.964844 236.257812 C 177.964844 242.195312 182.578125 247.015625 188.261719 247.015625 C 190.050781 247.015625 191.734375 246.535156 193.203125 245.691406 C 191.398438 248.796875 188.128906 250.878906 184.398438 250.878906 C 178.714844 250.878906 174.097656 246.058594 174.097656 240.121094 C 174.097656 236.054688 176.265625 232.511719 179.457031 230.6875 Z M 179.457031 230.6875 " fill-opacity="1" fill-rule="evenodd"/><path fill="#34426e" d="M 176.089844 308.058594 L 189.25 308.058594 L 189.25 333.824219 L 176.089844 333.824219 Z M 176.089844 308.058594 " fill-opacity="1" fill-rule="evenodd"/><path fill="#34426e" d="M 255.363281 333.992188 C 255.363281 331.582031 254.40625 329.273438 252.703125 327.570312 C 251 325.871094 248.691406 324.914062 246.285156 324.914062 L 114.183594 324.914062 C 111.777344 324.914062 109.46875 325.871094 107.765625 327.570312 C 106.0625 329.273438 105.109375 331.582031 105.109375 333.992188 Z M 255.363281 333.992188 " fill-opacity="1" fill-rule="evenodd"/><g clip-path="url(#1e579f34b5)"><path fill="#34426e" d="M 234.34375 55.792969 C 228.359375 33.058594 208.164062 16.316406 184.171875 16.316406 C 159.910156 16.316406 139.492188 33.488281 133.816406 56.65625 C 136.5 61.714844 138.242188 69.59375 138.242188 78.441406 C 138.242188 93.679688 133.101562 106.046875 126.714844 106.046875 C 120.371094 106.046875 115.230469 93.679688 115.230469 78.441406 C 115.230469 68.308594 117.511719 59.441406 120.90625 54.640625 C 127.609375 25.023438 153.386719 2.929688 184.171875 2.929688 C 215 2.929688 240.867188 25.085938 247.523438 54.765625 C 250.699219 59.4375 252.753906 67.550781 252.753906 76.765625 C 252.753906 91.230469 247.613281 102.972656 241.269531 102.972656 C 240.0625 102.972656 238.902344 102.550781 237.785156 101.761719 C 232.871094 110.199219 223.128906 120.085938 204.945312 118.824219 C 204.320312 120.105469 202.890625 121 201.28125 121 C 199.046875 121 197.261719 119.332031 197.261719 117.277344 C 197.261719 115.222656 199.046875 113.558594 201.28125 113.558594 C 203.070312 113.558594 204.542969 114.609375 205.082031 116.082031 C 222.28125 117.28125 231.308594 107.6875 235.773438 99.792969 C 232.199219 95.347656 229.742188 86.699219 229.742188 76.765625 C 229.742188 68.191406 231.574219 60.574219 234.34375 55.792969 Z M 234.34375 55.792969 " fill-opacity="1" fill-rule="evenodd"/></g><path fill="#ff8368" d="M 194.238281 100.496094 C 194.203125 106.515625 189.480469 111.394531 183.667969 111.394531 C 177.832031 111.394531 173.09375 106.480469 173.09375 100.425781 L 194.238281 100.425781 Z M 194.238281 100.496094 " fill-opacity="1" fill-rule="evenodd"/><path fill="#34426e" d="M 68.867188 150.664062 C 68.867188 150.664062 67.53125 152.371094 65.574219 154.742188 C 64.578125 155.949219 63.417969 157.324219 62.191406 158.738281 C 61.589844 159.429688 60.972656 160.136719 60.355469 160.832031 C 59.410156 161.894531 58.453125 162.9375 57.519531 163.898438 C 55.351562 166.125 53.308594 167.917969 51.832031 168.46875 C 51.660156 168.53125 51.574219 168.71875 51.636719 168.886719 C 51.699219 169.054688 51.886719 169.140625 52.054688 169.078125 C 53 168.734375 54.175781 167.917969 55.460938 166.804688 C 56.796875 165.640625 58.269531 164.152344 59.722656 162.546875 C 60.390625 161.8125 61.058594 161.050781 61.703125 160.289062 C 62.359375 159.511719 62.996094 158.722656 63.601562 157.960938 C 64.394531 156.964844 65.136719 155.996094 65.804688 155.113281 C 67.703125 152.589844 68.976562 150.746094 68.976562 150.746094 C 69 150.714844 68.992188 150.671875 68.960938 150.652344 C 68.929688 150.628906 68.886719 150.636719 68.867188 150.664062 Z M 68.867188 150.664062 " fill-opacity="1" fill-rule="evenodd"/><path fill="#34426e" d="M 57 164.953125 C 57 164.953125 58.78125 165.613281 61.144531 166.75 C 61.980469 167.15625 62.886719 167.621094 63.8125 168.132812 C 64.527344 168.53125 65.25 168.953125 65.964844 169.40625 C 66.667969 169.847656 67.363281 170.3125 68.019531 170.808594 C 69.171875 171.671875 70.207031 172.613281 70.984375 173.621094 C 71.859375 174.757812 72.410156 175.972656 72.414062 177.257812 C 72.414062 177.4375 72.558594 177.585938 72.738281 177.585938 C 72.917969 177.585938 73.066406 177.4375 73.066406 177.257812 C 73.070312 175.828125 72.488281 174.472656 71.523438 173.210938 C 70.710938 172.152344 69.632812 171.160156 68.425781 170.261719 C 67.75 169.761719 67.039062 169.289062 66.304688 168.851562 C 65.570312 168.410156 64.816406 168.007812 64.078125 167.636719 C 63.117188 167.15625 62.179688 166.738281 61.3125 166.375 C 58.878906 165.363281 57.042969 164.820312 57.042969 164.820312 C 57.003906 164.808594 56.964844 164.832031 56.953125 164.867188 C 56.941406 164.902344 56.960938 164.9375 57 164.953125 Z M 57 164.953125 " fill-opacity="1" fill-rule="evenodd"/><path fill="#ff8368" d="M 81.332031 25.050781 C 82.441406 21.273438 86.035156 20.546875 88.175781 21.886719 C 90.320312 23.230469 91.007812 26.644531 89.902344 30.421875 C 89.164062 33.234375 86.449219 36.449219 84.097656 38.703125 C 81.054688 37.542969 77.304688 35.636719 75.527344 33.328125 C 73.042969 30.28125 72.351562 26.867188 73.800781 24.796875 C 75.253906 22.726562 78.847656 22 81.332031 25.050781 Z M 81.332031 25.050781 " fill-opacity="1" fill-rule="evenodd"/></svg>